<svg xmlns="http://www.w3.org/2000/svg">
  <symbol id='arrow' viewBox="0 0 17 16" fill="currentColor" xmlns="http://www.w3.org/2000/svg">
    <path fill-rule="evenodd" clip-rule="evenodd" d="M9.2413 14.7237C8.85167 14.3322 8.85324 13.6989 9.24481 13.3092L13.5768 8.99874L0.999819 8.99874C0.447535 8.99874 -0.000183105 8.55102 -0.000183105 7.99874C-0.000183105 7.44645 0.447533 6.99874 0.999817 6.99874L13.5768 6.99874L9.24494 2.68923C8.8533 2.29962 8.8517 1.66627 9.24136 1.27468C9.63097 0.883139 10.2642 0.881548 10.6558 1.27113L16.7053 7.28988C17.0982 7.68079 17.0982 8.3167 16.7054 8.70765L10.6558 14.7272C10.2642 15.1169 9.63094 15.1153 9.2413 14.7237Z" fill="currentColor" />
  </symbol>

  <symbol id='completed' width="18" height="18" viewBox="0 0 18 18" fill="none" xmlns="http://www.w3.org/2000/svg">
    <path fill-rule="evenodd" clip-rule="evenodd" d="M12.5027 7.44035L8.45184 11.4912C8.32289 11.6202 8.15535 11.6842 7.98692 11.6842C7.81763 11.6842 7.65008 11.6202 7.52113 11.4912L5.4957 9.46579C5.23868 9.20877 5.23868 8.7921 5.4957 8.53509C5.75271 8.27807 6.1685 8.27807 6.42552 8.53509L7.98692 10.0956L11.572 6.50965C11.829 6.25263 12.2457 6.25263 12.5027 6.50965C12.7597 6.76666 12.7597 7.18333 12.5027 7.44035ZM9.00008 0.666664C4.40534 0.666664 0.666748 4.40526 0.666748 9C0.666748 13.5956 4.40534 17.3333 9.00008 17.3333C13.5948 17.3333 17.3334 13.5956 17.3334 9C17.3334 4.40526 13.5948 0.666664 9.00008 0.666664Z" fill="#004F80"/>
  </symbol>

  <symbol id='question' width="24" height="24" viewBox="0 0 24 24" fill="none" xmlns="http://www.w3.org/2000/svg">
    <path fill-rule="evenodd" clip-rule="evenodd" d="M14.1587 13.0042L13.9806 13.104C13.1621 13.5613 12.8728 13.7962 12.8792 14.1979C12.8855 14.7208 12.4674 15.1503 11.9444 15.1579H11.9318C11.4139 15.1579 10.9907 14.7423 10.9844 14.2232C10.9629 12.6215 12.2728 11.8888 13.0547 11.4518L13.2328 11.3507C13.9516 10.9554 14.3103 10.4072 14.3103 9.71747C14.3103 8.57684 13.3819 7.64968 12.2413 7.64968C11.0804 7.64968 10.1709 8.55789 10.1709 9.71747C10.1709 10.2404 9.74653 10.6648 9.22358 10.6648C8.70063 10.6648 8.27621 10.2404 8.27621 9.71747C8.27621 7.53221 10.0547 5.75495 12.2413 5.75495C14.4265 5.75495 16.2051 7.53221 16.2051 9.71747C16.2051 11.1107 15.4775 12.2779 14.1587 13.0042ZM11.9331 18.2653C11.4101 18.2653 10.9857 17.8598 10.9857 17.3368V17.2989C10.9857 16.776 11.4101 16.3516 11.9331 16.3516C12.456 16.3516 12.8804 16.776 12.8804 17.2989C12.8804 17.8219 12.456 18.2653 11.9331 18.2653ZM12 0C5.38232 0 0 5.38358 0 12C0 18.6164 5.38232 24 12 24C18.6164 24 24 18.6164 24 12C24 5.38358 18.6164 0 12 0Z" fill="#166298"/>
  </symbol>

  <symbol id="button-loading" fill="none" viewBox="0 0 16 16">
    <path
      d='M2.375 7.99994C2.375 8.73862 2.52049 9.47007 2.80318 10.1525C3.08586 10.835 3.50019 11.4551 4.02252 11.9774C4.54485 12.4997 5.16495 12.9141 5.84741 13.1968C6.52986 13.4794 7.26131 13.6249 8 13.6249C8.73869 13.6249 9.47014 13.4794 10.1526 13.1968C10.8351 12.9141 11.4551 12.4997 11.9775 11.9774C12.4998 11.4551 12.9141 10.835 13.1968 10.1525C13.4795 9.47007 13.625 8.73862 13.625 7.99994C13.625 6.50809 13.0324 5.07735 11.9775 4.02246'
      stroke='currentColor'
      stroke-width='1.5'
      stroke-linecap='round'
      stroke-linejoin='round'
    />
  </symbol>

  <symbol id="minus" width="12" height="2" viewBox="0 0 12 2" xmlns="http://www.w3.org/2000/svg">
    <path fill-rule="evenodd" clip-rule="evenodd" d="M0.666992 0.99998C0.666992 0.63179 0.965469 0.333313 1.33366 0.333313H10.667C11.0352 0.333313 11.3337 0.63179 11.3337 0.99998C11.3337 1.36817 11.0352 1.66665 10.667 1.66665H1.33366C0.96547 1.66665 0.666992 1.36817 0.666992 0.99998Z" fill="currentColor"/>
  </symbol>

  <symbol id="plus" width="12" height="12" viewBox="0 0 12 12" xmlns="http://www.w3.org/2000/svg">
    <path fill-rule="evenodd" clip-rule="evenodd" d="M6.66699 1.33332C6.66699 0.965133 6.36852 0.666656 6.00033 0.666656C5.63214 0.666656 5.33366 0.965135 5.33366 1.33332V5.33332H1.33366C0.965469 5.33332 0.666992 5.6318 0.666992 5.99999C0.666992 6.36818 0.96547 6.66666 1.33366 6.66666H5.33366V10.6667C5.33366 11.0348 5.63214 11.3333 6.00033 11.3333C6.36852 11.3333 6.66699 11.0348 6.66699 10.6667V6.66666H10.667C11.0352 6.66666 11.3337 6.36818 11.3337 5.99999C11.3337 5.6318 11.0352 5.33332 10.667 5.33332H6.66699V1.33332Z" fill="currentColor"/>
  </symbol>

  <symbol id="pencil" viewBox="0 0 12 14" xmlns="http://www.w3.org/2000/svg">
    <path d="M10.2716 5.08505L10.8873 4.22971C11.5004 3.39358 11.3173 2.22301 10.4811 1.61782L9.09557 0.606506C8.26741 0.00131197 7.08888 0.184463 6.48368 1.02059L5.87411 1.86351C5.79718 1.96991 5.8186 2.11704 5.92451 2.19469L6.12537 2.34203C6.99371 2.979 9.07667 4.50695 9.93647 5.13816C10.0436 5.21684 10.1941 5.19287 10.2716 5.08505Z" fill="currentColor"/>
    <path d="M5.23644 3.16995C5.1295 3.09134 4.97898 3.11498 4.90128 3.22259L1.33949 8.15546C0.949298 8.71287 0.742258 9.38177 0.750221 10.0666L0.758184 11.4761C0.758184 11.5261 0.758185 11.5698 0.76395 11.6185C0.765272 11.6297 0.766148 11.6411 0.766148 11.6524V11.9538C0.774111 12.7263 1.51468 13.2837 2.25524 13.0687L2.7053 12.9345C2.70784 12.9337 2.71048 12.9333 2.71314 12.9333C2.71576 12.9333 2.71838 12.933 2.7209 12.9322L4.03897 12.5431C4.75565 12.3361 5.37677 11.8901 5.79883 11.2849L9.29144 6.44435C9.36812 6.33804 9.34479 6.18969 9.2392 6.11205L5.23644 3.16995Z" fill="currentColor"/>
  </symbol>

  <symbol id="check-mark" viewBox="0 0 16 12" fill="none" xmlns="http://www.w3.org/2000/svg">
    <path fill-rule="evenodd" clip-rule="evenodd" d="M5.37525 11.8127C5.11925 11.8127 4.86325 11.7147 4.66825 11.5197L0.29325 7.1448C-0.09775 6.7538 -0.09775 6.1217 0.29325 5.7308C0.68425 5.3398 1.31625 5.3398 1.70725 5.7308L5.37525 9.3988L14.2932 0.48075C14.6842 0.08975 15.3162 0.08975 15.7072 0.48075C16.0982 0.87175 16.0982 1.50375 15.7072 1.89475L6.08224 11.5197C5.88725 11.7147 5.63125 11.8127 5.37525 11.8127Z" fill="white"/>
  </symbol>

  <symbol id="more-horizontal" width="20" height="4" viewBox="0 0 20 4" fill="none" xmlns="http://www.w3.org/2000/svg">
    <path fill-rule="evenodd" clip-rule="evenodd" d="M2.66671 0.166656C1.65419 0.166656 0.833374 0.987468 0.833374 1.99999C0.833374 3.01251 1.65419 3.83332 2.66671 3.83332H2.68315C3.69567 3.83332 4.51648 3.01251 4.51648 1.99999C4.51648 0.987468 3.69567 0.166656 2.68315 0.166656H2.66671ZM8.15843 1.99999C8.15843 0.987468 8.97924 0.166656 9.99176 0.166656H10.0082C11.0207 0.166656 11.8415 0.987468 11.8415 1.99999C11.8415 3.01251 11.0207 3.83332 10.0082 3.83332H9.99176C8.97924 3.83332 8.15843 3.01251 8.15843 1.99999ZM15.4836 1.99999C15.4836 0.987468 16.3044 0.166656 17.3169 0.166656H17.3334C18.3459 0.166656 19.1667 0.987468 19.1667 1.99999C19.1667 3.01251 18.3459 3.83332 17.3334 3.83332H17.3169C16.3044 3.83332 15.4836 3.01251 15.4836 1.99999Z" fill="#5B616D"/>
  </symbol>

  <symbol id="link" viewBox="0 0 18 18" xmlns="http://www.w3.org/2000/svg">
    <path fill-rule="evenodd" clip-rule="evenodd" d="M14.0959 11.7467C13.8826 11.7467 13.6701 11.6651 13.5076 11.5034C13.1809 11.1784 13.1809 10.6509 13.5059 10.325L14.4609 9.36754C15.2392 8.5917 15.6667 7.55836 15.6667 6.4542C15.6667 5.35003 15.2384 4.31336 14.4609 3.53585C12.8576 1.93084 10.2409 1.93084 8.63005 3.53669L7.67671 4.49336C7.35087 4.82003 6.82339 4.81919 6.49839 4.49502C6.17172 4.17002 6.17173 3.64169 6.49672 3.31668L7.45171 2.35835C9.71422 0.102502 13.3876 0.103336 15.6409 2.35751C16.7318 3.45085 17.3334 4.90503 17.3334 6.4542C17.3334 8.0042 16.7318 9.45671 15.6401 10.5459L14.6859 11.5017C14.5234 11.6651 14.3092 11.7467 14.0959 11.7467ZM6.45511 17.3265C4.90427 17.3265 3.44927 16.7257 2.35926 15.6357C1.26925 14.5498 0.668418 13.0998 0.666752 11.5515C0.665085 10.0006 1.26509 8.54313 2.35843 7.44813L3.31593 6.49731C3.6426 6.17147 4.1701 6.17397 4.49427 6.50064C4.81927 6.82648 4.81761 7.35479 4.49177 7.67896L3.53593 8.62813C2.75926 9.40564 2.33259 10.444 2.33343 11.5498C2.33509 12.6523 2.76176 13.684 3.53677 14.4565C4.31344 15.2323 5.34928 15.6598 6.45511 15.6598C7.55845 15.6598 8.59346 15.2323 9.36763 14.4573L10.326 13.5057C10.6518 13.1798 11.1793 13.1823 11.5043 13.509C11.8285 13.8357 11.8268 14.3632 11.501 14.6873L10.5451 15.6373C9.45846 16.7257 8.00429 17.3265 6.45511 17.3265ZM6.24763 11.828C6.41013 11.9905 6.62347 12.0721 6.8368 12.0721C7.05014 12.0721 7.26347 11.9905 7.426 11.828L11.7852 7.47045C12.111 7.14465 12.111 6.61715 11.7852 6.29131C11.4602 5.96631 10.9327 5.96631 10.6069 6.29131L6.24763 10.6496C5.9218 10.9755 5.9218 11.5021 6.24763 11.828Z" fill="currentColor"/>
  </symbol>

  <symbol id="premmplus-logo" viewBox="0 0 335.08 94.633">
    <g id="Group_23" data-name="Group 23" transform="translate(-258 -18.406)">
      <path id="Union_1" data-name="Union 1" d="M30.567,65.033V38.365H3.9a3.9,3.9,0,0,1,0-7.8H30.567V3.9a3.9,3.9,0,1,1,7.8,0V30.567H65.033a3.9,3.9,0,0,1,0,7.8H38.365V65.033a3.9,3.9,0,1,1-7.8,0Z" transform="translate(524.147 20.573)" fill="#f2651a"/>
      <g id="Group_10" data-name="Group 10" transform="translate(258 18.406)">
        <path id="Path_100" data-name="Path 100" d="M74.9,40.58V39.151c0-14.8-11.416-17.006-18.221-17.006H39.442V79.414h7.431v-21.9h9.8c.6,0,1.206,0,1.818-.024l8.842,21.923h8.137l-9.847-23.45C71.7,53.522,74.9,48.216,74.9,40.58m-7.574-1.286v1.072c0,8.444-5.712,10.217-10.5,10.217H46.873V29.077H56.82c4.793,0,10.5,1.773,10.5,10.217" transform="translate(10.225 -14.389)" fill="#3d9ed2"/>
        <rect id="Rectangle_20" data-name="Rectangle 20" width="13.908" height="6.86" transform="translate(110.205 32.178)" fill="#3d9ed2"/>
        <path id="Path_101" data-name="Path 101" d="M75.5,79.22h35.016V72.289H82.929V29.822h27.584V22.891H75.5Z" transform="translate(19.572 -14.196)" fill="#3d9ed2"/>
        <path id="Path_102" data-name="Path 102" d="M135.791,55.111l-15.5-32.22h-9.079V79.22h7.431V45.376l-.179-8.845,14.022,29h6.542l14.049-29.052L152.94,45.4V79.22h7.431V22.891h-9.079Z" transform="translate(28.831 -14.196)" fill="#3d9ed2"/>
        <path id="Path_103" data-name="Path 103" d="M199.627,22.891l-15.5,32.22-15.5-32.22h-9.079V79.22h7.432V45.376l-.18-8.845L180.82,65.526h6.541l14.052-29.051-.136,8.924V79.22h7.43V22.891Z" transform="translate(41.361 -14.196)" fill="#3d9ed2"/>
        <path id="Path_104" data-name="Path 104" d="M20.916,15.986H0V82.592H7.62V22.917H22.187c4.791,0,10.5,1.773,10.5,10.219v5.256c0,8.444-5.916,10.218-10.88,10.218H15.928V55.54H20.54c17.8,0,19.726-11.843,19.726-16.934V32.992c0-15.349-13.532-17.006-19.35-17.006" transform="translate(0 -15.986)" fill="#3d9ed2"/>
        <path id="Path_105" data-name="Path 105" d="M30.365,95.32c-5.075-.519-7.715-4.426-7.715-10.089,0-5.592,2.6-9.681,7.53-10.311a10.416,10.416,0,0,1,1.782-.013c5.034.584,7.644,4.672,7.644,10.323,0,5.708-2.764,9.632-7.87,10.1a8.927,8.927,0,0,1-1.37-.011m-.006-18.168c-3.852.584-5.407,4-5.407,8.079,0,4.051,1.608,7.349,5.537,7.853a6.265,6.265,0,0,0,1.248.008c3.984-.479,5.568-3.789,5.568-7.86,0-4-1.543-7.537-5.481-8.092a6.713,6.713,0,0,0-1.465.013" transform="translate(5.872 -0.719)" fill="#3d9ed2"/>
        <path id="Path_106" data-name="Path 106" d="M49.6,75.041H43.755V95.088H49.72c7.747,0,9.083-5.223,9.083-10.024,0-4.776-1.36-10.024-9.206-10.024m-.123,17.82H46.107V77.269h3.241c6.039,0,7.029,3.688,7.029,7.8,0,4.134-.939,7.8-6.9,7.8" transform="translate(11.343 -0.676)" fill="#3d9ed2"/>
        <rect id="Rectangle_21" data-name="Rectangle 21" width="5.669" height="2.228" transform="translate(85.02 83.274)" fill="#3d9ed2"/>
        <path id="Path_107" data-name="Path 107" d="M76.236,75.04H63.675V95.087H76.236V92.86H66.028V77.268H76.236Z" transform="translate(16.507 -0.677)" fill="#3d9ed2"/>
        <path id="Path_108" data-name="Path 108" d="M84.026,92.86V75.041H81.675V95.088h12.7V92.86Z" transform="translate(21.174 -0.676)" fill="#3d9ed2"/>
        <path id="Path_109" data-name="Path 109" d="M16.586,75.04,9.742,87.609H9.7L2.83,75.04H.786V95.087H3.05V80.338h.044l5.445,9.841H10.86l5.461-9.841h.044v14.75h2.265V75.04Z" transform="translate(0.204 -0.677)" fill="#3d9ed2"/>
      </g>
    </g>
  </symbol>

  <symbol id="cross" viewBox="0 0 12 12" xmlns="http://www.w3.org/2000/svg">
    <path fill-rule="evenodd" clip-rule="evenodd" d="M7.06068 6.00015L11.0304 2.03044C11.3237 1.73719 11.3237 1.26319 11.0304 0.969938C10.7372 0.676687 10.2632 0.676687 9.96993 0.969938L6.00018 4.93965L2.03044 0.969938C1.73719 0.676687 1.26319 0.676687 0.969938 0.969938C0.676687 1.26319 0.676687 1.73719 0.969938 2.03044L4.93968 6.00015L0.969938 9.96998C0.676687 10.2632 0.676687 10.7372 0.969938 11.0304C1.11619 11.1767 1.30819 11.2502 1.50019 11.2502C1.69219 11.2502 1.88419 11.1767 2.03044 11.0304L6.00018 7.06073L9.96993 11.0304C10.1162 11.1767 10.3082 11.2502 10.5002 11.2502C10.6922 11.2502 10.8842 11.1767 11.0304 11.0304C11.3237 10.7372 11.3237 10.2632 11.0304 9.96998L7.06068 6.00015Z" fill="currentColor"/>
  </symbol>

  <symbol id="cross-secondary" viewBox="0 0 20 20" xmlns="http://www.w3.org/2000/svg">
    <path fill-rule="evenodd" clip-rule="evenodd" d="M2.92887 2.92889C6.83438 -0.976621 13.1655 -0.976621 17.071 2.92889C20.9765 6.83442 20.9765 13.1655 17.071 17.071C13.1662 20.9758 6.83441 20.9766 2.92887 17.071C-0.976663 13.1655 -0.975919 6.83368 2.92887 2.92889ZM13.0116 8.1048C13.3199 7.79649 13.3199 7.29662 13.0116 6.98832C12.7033 6.68002 12.2034 6.68001 11.8951 6.98832L9.99853 8.88488L8.10055 6.9869C7.79224 6.67859 7.29236 6.67861 6.98406 6.9869C6.67577 7.2952 6.67575 7.79508 6.98406 8.10339L8.88204 10.0014L6.98789 11.8955C6.67959 12.2038 6.67959 12.7037 6.98789 13.012C7.29619 13.3203 7.79608 13.3203 8.10437 13.012L9.99853 11.1179L11.8963 13.0157C12.2046 13.324 12.7045 13.324 13.0128 13.0157C13.3211 12.7074 13.3211 12.2075 13.0128 11.8992L11.115 10.0014L13.0116 8.1048Z" fill="currentColor"/>
  </symbol>

  <symbol id="user" viewBox="0 0 16 20" xmlns="http://www.w3.org/2000/svg">
    <path d="M8 13.0152C12.0668 13.0152 15.5 13.6844 15.5 16.2687C15.5 18.8531 12.0448 19.5 8 19.5C3.9332 19.5 0.5 18.8298 0.5 16.2464C0.5 13.6621 3.95422 13.0152 8 13.0152ZM8 0.5C10.7546 0.5 12.9626 2.73663 12.9626 5.52684C12.9626 8.31705 10.7546 10.5537 8 10.5537C5.24543 10.5537 3.03737 8.31705 3.03737 5.52684C3.03737 2.73663 5.24543 0.5 8 0.5Z" fill="currentColor"/>
  </symbol>

  <symbol id="circle" viewBox="0 0 24 24" xmlns="http://www.w3.org/2000/svg">
    <circle cx="12" cy="12" r="12" fill="currentColor"/>
  </symbol>
  
  <symbol id="loader" viewBox="0 0 18 18" fill="none" xmlns="http://www.w3.org/2000/svg">
    <path d="M17.3332 8.99996C17.3332 13.6023 13.6022 17.3333 8.99984 17.3333C4.39746 17.3333 0.666504 13.6023 0.666504 8.99996C0.666504 4.39759 4.39746 0.666626 8.99984 0.666626C13.6022 0.666626 17.3332 4.39759 17.3332 8.99996ZM2.33317 8.99996C2.33317 12.6819 5.31794 15.6666 8.99984 15.6666C12.6817 15.6666 15.6665 12.6819 15.6665 8.99996C15.6665 5.31806 12.6817 2.33329 8.99984 2.33329C5.31794 2.33329 2.33317 5.31806 2.33317 8.99996Z" fill="#E1EFFE"/>
    <path d="M3.69654 3.69666C3.3711 3.37122 3.3687 2.83988 3.725 2.54856C4.35441 2.03394 5.05693 1.61323 5.81081 1.30096C6.82186 0.882174 7.90549 0.666626 8.99984 0.666626C10.0942 0.666626 11.1778 0.882175 12.1889 1.30096C12.9428 1.61323 13.6453 2.03394 14.2747 2.54856C14.631 2.83989 14.6286 3.37122 14.3031 3.69666C13.9777 4.0221 13.4528 4.01729 13.0894 3.73497C12.6198 3.37027 12.1026 3.06923 11.5511 2.84076C10.7422 2.50573 9.87532 2.33329 8.99984 2.33329C8.12436 2.33329 7.25745 2.50573 6.44862 2.84076C5.89704 3.06923 5.37983 3.37027 4.9103 3.73497C4.54683 4.01729 4.02197 4.02209 3.69654 3.69666Z" fill="#166298"/>
  </symbol>

  <symbol id="info" viewBox="0 0 18 18" xmlns="http://www.w3.org/2000/svg">
    <path fill-rule="evenodd" clip-rule="evenodd" d="M9 0C4.03768 0 0 4.03674 0 9C0 13.9623 4.03768 18 9 18C13.9623 18 18 13.9623 18 9C18 4.03674 13.9623 0 9 0ZM10.25 5.75C10.25 6.44036 9.69034 7 8.99999 7C8.30963 7 7.74999 6.44036 7.74999 5.75C7.74999 5.05964 8.30963 4.5 8.99999 4.5C9.69034 4.5 10.25 5.05964 10.25 5.75ZM9.00001 7.99996C8.44773 7.99996 8.00001 8.44767 8.00001 8.99996V13C8.00001 13.5522 8.44773 14 9.00001 14C9.5523 14 10 13.5522 10 13V8.99996C10 8.44767 9.5523 7.99996 9.00001 7.99996Z" fill="currentColor"/>
  </symbol>

  <symbol id="mail" viewBox="0 0 18 16" xmlns="http://www.w3.org/2000/svg">
    <path fill-rule="evenodd" clip-rule="evenodd" d="M15.5745 12.5939L11.7579 8.44387L11.3017 8.81668C10.6596 9.35176 9.85347 9.61931 9.04557 9.61931C8.23593 9.61931 7.42628 9.35089 6.78066 8.81229L6.27452 8.40703L2.42364 12.5895C2.19557 12.1386 2.05435 11.6298 2.01224 11.093L5.2447 7.58246L2.01049 4.99298C2.05084 4.48421 2.17715 4.01667 2.37978 3.60263L7.61312 7.79387C8.43329 8.4772 9.65522 8.47632 10.4649 7.80176L15.614 3.59035C15.8193 4.00526 15.9473 4.47456 15.9886 4.98421L12.778 7.60966L15.9868 11.0991C15.9438 11.6351 15.8026 12.1439 15.5745 12.5939ZM17.3324 10.7693C17.3324 10.7676 17.3333 10.7658 17.3333 10.7632V5.32456C17.3333 5.32456 17.3324 5.32193 17.3324 5.32018C17.3324 5.05439 17.3043 4.8 17.264 4.55088C17.2403 4.38421 17.2079 4.22368 17.1693 4.06403C17.1666 4.05088 17.1649 4.03772 17.1622 4.02456L17.1587 4.02719C17.0456 3.56491 16.8798 3.1307 16.6552 2.73947L16.6614 2.73421C16.6508 2.71754 16.6386 2.70175 16.628 2.68509C16.5859 2.61228 16.5377 2.54474 16.4912 2.47544C16.3798 2.30614 16.2587 2.14649 16.128 1.99561C16.0886 1.95 16.0526 1.90175 16.0114 1.85877C15.8368 1.67281 15.6465 1.50614 15.4438 1.35439C15.4 1.32281 15.3552 1.29386 15.3114 1.26316C15.1079 1.12281 14.8956 0.996491 14.6693 0.892983C14.6517 0.885088 14.6359 0.875439 14.6193 0.867544C14.3789 0.761404 14.1254 0.683333 13.8631 0.622807C13.8043 0.608772 13.7447 0.597368 13.685 0.585965C13.421 0.535965 13.15 0.501755 12.8684 0.500877C12.8649 0.500877 12.8622 0.5 12.8596 0.5H5.14031C5.1368 0.5 5.13505 0.500877 5.13154 0.500877C4.83505 0.501755 4.55259 0.537719 4.27715 0.589474C4.24119 0.596491 4.2061 0.603509 4.17101 0.611404C2.92891 0.87807 1.92189 1.64737 1.31224 2.74737L1.33242 2.76316C1.11049 3.15614 0.945573 3.5886 0.833293 4.05L0.825398 4.04386C0.817503 4.07895 0.813117 4.11667 0.805222 4.15263C0.778907 4.27281 0.7561 4.39474 0.737679 4.5193C0.696451 4.77895 0.666626 5.04474 0.666626 5.32368V10.7658C0.666626 11.0605 0.698205 11.343 0.745573 11.6184C0.778029 11.8237 0.828907 12.0184 0.883293 12.2149C0.89031 12.2421 0.894696 12.2719 0.902591 12.2983L0.9061 12.2947C1.13856 13.0921 1.5254 13.8158 2.07013 14.3597C2.56312 14.8526 3.16838 15.1895 3.8447 15.3877C3.92803 15.4132 4.00961 15.4404 4.0947 15.4605C4.19908 15.4851 4.30435 15.5053 4.41224 15.5219C4.6447 15.5597 4.88242 15.586 5.12891 15.5869C5.13242 15.5869 5.13592 15.5877 5.14031 15.5877H12.8596C12.8622 15.5877 12.8657 15.5869 12.8684 15.5869C13.1438 15.5869 13.4079 15.5553 13.6658 15.5105C13.6842 15.507 13.7035 15.5035 13.7219 15.5C14.5579 15.3412 15.2921 14.9605 15.8754 14.4018C15.8929 14.386 15.9122 14.3754 15.9298 14.3597C15.9614 14.3281 15.9842 14.286 16.0149 14.2535C16.1991 14.0588 16.3719 13.8526 16.521 13.6237L16.5201 13.6219C16.7745 13.2263 16.9535 12.7737 17.0921 12.3L17.1026 12.3114C17.1219 12.243 17.1315 12.1693 17.1491 12.1C17.1868 11.9491 17.2263 11.8018 17.2508 11.6465C17.3 11.364 17.3324 11.0746 17.3324 10.7693Z" fill="currentColor"/>
  </symbol>

  <symbol id="lock" viewBox="0 0 14 17" xmlns="http://www.w3.org/2000/svg">
    <path fill-rule="evenodd" clip-rule="evenodd" d="M9.90493 12.4298C9.43534 12.4298 9.0525 12.0478 9.0525 11.5773C9.0525 11.1085 9.43534 10.7256 9.90493 10.7256C10.3746 10.7256 10.7567 11.1085 10.7567 11.5773C10.7567 12.0478 10.3746 12.4298 9.90493 12.4298ZM7.00166 12.4298C6.53198 12.4298 6.14999 12.0478 6.14999 11.5773C6.14999 11.1085 6.53198 10.7256 7.00166 10.7256C7.47219 10.7256 7.85418 11.1085 7.85418 11.5773C7.85418 12.0478 7.47219 12.4298 7.00166 12.4298ZM4.09759 12.4298C3.62791 12.4298 3.24508 12.0478 3.24508 11.5773C3.24508 11.1085 3.62791 10.7256 4.09759 10.7256C4.56728 10.7256 4.95011 11.1085 4.95011 11.5773C4.95011 12.0478 4.56728 12.4298 4.09759 12.4298ZM3.88425 4.99498C3.91377 3.29838 5.26632 1.95258 6.96465 1.93149H7.00335C8.70585 1.93149 10.1007 3.30429 10.1216 5.00088V6.35428C9.86868 6.35091 9.59133 6.35007 9.27335 6.35007H4.72665C4.41212 6.35007 4.13638 6.35091 3.88425 6.35344V4.99498ZM13.3749 8.02054C13.0823 7.41594 12.5907 6.92684 11.9953 6.64604C11.8091 6.55497 11.61 6.49426 11.3865 6.45041V4.99414C11.357 2.57742 9.36872 0.661577 6.94854 0.666636C4.56222 0.696993 2.66071 2.58838 2.61939 4.98402V6.44872C2.39594 6.49257 2.19609 6.55244 2.00973 6.64351C1.40935 6.92684 0.917738 7.41594 0.624291 8.02223C0.333374 8.63273 0.333374 9.33852 0.333374 10.7434V12.5395C0.333374 13.9519 0.333374 14.661 0.624291 15.2581C0.909306 15.8568 1.39923 16.3492 2.00973 16.6477C2.61433 16.9327 3.32013 16.9327 4.72665 16.9327H9.27343C10.68 16.9327 11.3857 16.9327 11.9953 16.6452C12.6016 16.3492 13.0915 15.8568 13.3749 15.2614C13.6666 14.661 13.6667 13.9519 13.6667 12.5395V10.7434C13.6667 9.33852 13.6666 8.63273 13.3749 8.02054Z" fill="currentColor"/>
  </symbol>

  <symbol id="eye" viewBox="0 0 18 14" xmlns="http://www.w3.org/2000/svg">
    <path fill-rule="evenodd" clip-rule="evenodd" d="M5.64571 7.00057C5.64571 8.85313 7.15178 10.3601 9.00262 10.3601C10.8534 10.3601 12.3586 8.85313 12.3586 7.00057C12.3586 5.15244 10.8534 3.64987 9.00262 3.64987C7.15178 3.64987 5.64571 5.15244 5.64571 7.00057ZM8.99823 0.333344C12.4472 0.333344 15.5497 2.76131 17.2979 6.82777C17.3453 6.9383 17.3453 7.06285 17.2979 7.17337C15.5506 11.2381 12.4498 13.6661 9.00262 13.6678H8.99736C5.5501 13.6661 2.44935 11.2381 0.702931 7.17337C0.654687 7.06285 0.654687 6.9383 0.702931 6.82777C2.45023 2.76131 5.55097 0.333344 8.99823 0.333344ZM6.96146 7.00084C6.96146 5.87895 7.87723 4.96583 9.00262 4.96583C10.128 4.96583 11.0429 5.87895 11.0429 7.00084C11.0429 8.12798 10.128 9.04461 9.00262 9.04461C7.87723 9.04461 6.96146 8.12798 6.96146 7.00084Z" fill="currentColor"/>
  </symbol>

  <symbol id="eye-hide" viewBox="0 0 18 16" xmlns="http://www.w3.org/2000/svg">
    <path fill-rule="evenodd" clip-rule="evenodd" d="M7.16054 10.6727C7.15855 10.6747 7.15586 10.6758 7.15304 10.6758C7.15023 10.6758 7.14755 10.677 7.14558 10.6789L2.73526 15.0892C2.60365 15.2208 2.43694 15.2823 2.27023 15.2823C2.10352 15.2823 1.92803 15.2208 1.8052 15.0892C1.54197 14.8348 1.54197 14.4224 1.8052 14.1592L3.639 12.3254C2.35797 11.1496 1.34894 9.68433 0.699651 8.05234C0.65578 7.94705 0.65578 7.83298 0.699651 7.72769C1.44546 5.88515 2.64752 4.24437 4.183 2.97212C5.53422 1.8578 7.24518 1.2436 8.9912 1.21728C10.553 1.2436 12.0797 1.72619 13.3432 2.62115L15.2735 0.690838C15.528 0.436387 15.9403 0.436387 16.2036 0.690838C16.458 0.954054 16.458 1.36645 16.2036 1.6209L11.8196 6.00489C11.8176 6.00687 11.8165 6.00955 11.8165 6.01235C11.8165 6.01517 11.8154 6.01787 11.8134 6.01986L10.8513 6.97312L8.11379 9.71066L7.16054 10.6727ZM6.62221 5.50785C5.99047 6.14834 5.63951 6.99066 5.63951 7.88563C5.63951 8.44472 5.78136 8.99767 6.04439 9.48235C6.12324 9.62765 6.31827 9.64608 6.43517 9.52921L7.06021 8.90413C7.13943 8.8249 7.15819 8.70479 7.11888 8.59985C7.03491 8.37575 6.99073 8.13622 6.99073 7.88563C6.99073 7.08718 7.45572 6.40279 8.12256 6.06062C8.16176 6.04755 8.19609 6.02962 8.23281 6.01045C8.2454 6.00387 8.25828 5.99715 8.27172 5.99043C8.31559 5.97288 8.36824 5.95533 8.42088 5.93778C8.49985 5.91147 8.58759 5.89392 8.66656 5.88514C8.71043 5.87636 8.7543 5.86759 8.79817 5.86759C8.83327 5.85881 8.87713 5.85881 8.91223 5.85881H8.97366C9.22942 5.85881 9.49081 5.90481 9.73473 5.99215C9.838 6.02913 9.95513 6.00922 10.0327 5.93164L10.6489 5.3155C10.7669 5.19747 10.7467 5.00021 10.5992 4.92225C10.1281 4.67345 9.59539 4.53392 9.0263 4.53392C8.67533 4.53392 8.34192 4.58656 8.02605 4.69185C7.92076 4.71817 7.82424 4.75327 7.71895 4.79715C7.31534 4.95508 6.93808 5.19198 6.62221 5.50785Z" fill="currentColor"/>
    <path d="M15.7124 4.9372C16.3441 5.78829 16.8794 6.72709 17.3005 7.71857C17.3444 7.82386 17.3444 7.95547 17.3005 8.06076C15.5457 12.132 12.4396 14.5536 9.00015 14.5536C8.2368 14.5536 7.46467 14.4308 6.70129 14.1851C6.5609 14.1413 6.44684 14.0184 6.41174 13.8693C6.37665 13.7201 6.42052 13.5622 6.53458 13.4569L8.66357 11.3279C8.72587 11.2656 8.8151 11.2397 8.90232 11.2517C10.7277 11.5006 12.6016 9.51157 12.3898 7.73989C12.3796 7.6547 12.4052 7.56818 12.4655 7.5072L15.0456 4.89332C15.1421 4.80558 15.2561 4.75294 15.3877 4.77049C15.5194 4.77926 15.6334 4.84068 15.7124 4.9372Z" fill="currentColor"/>
  </symbol>

  <symbol id="warning" viewBox="0 0 16 14" xmlns="http://www.w3.org/2000/svg">
    <path fill-rule="evenodd" clip-rule="evenodd" d="M8.60091 8.00766C8.60091 8.33256 8.33568 8.59626 8.00888 8.59626C7.68208 8.59626 7.41685 8.33256 7.41685 8.00766V5.64386C7.41685 5.31899 7.68208 5.05529 8.00888 5.05529C8.33568 5.05529 8.60091 5.31899 8.60091 5.64386V8.00766ZM8.0073 10.9671C7.6805 10.9671 7.41527 10.7223 7.41527 10.3974V10.3589C7.41527 10.034 7.6805 9.77031 8.0073 9.77031C8.3341 9.77031 8.59933 10.034 8.59933 10.3589C8.59933 10.6838 8.3341 10.9671 8.0073 10.9671ZM15.2388 10.8251L9.74472 1.23806C9.39029 0.621208 8.75247 0.25157 8.03809 0.25H8.03414C7.32291 0.25 6.68588 0.616499 6.33064 1.22942L0.767106 10.8157C0.411096 11.4278 0.411096 12.16 0.766317 12.7721C1.12154 13.3851 1.75935 13.75 2.47058 13.75H13.5282C14.2379 13.75 14.8733 13.3866 15.2301 12.7761C15.5869 12.1671 15.5901 11.4372 15.2388 10.8251Z" fill="currentColor"/>
  </symbol>
  
  <symbol id="button-filter" viewBox="0 0 14 12" fill="none"  xmlns="http://www.w3.org/2000/svg">
    <path fill-rule="evenodd" clip-rule="evenodd" d="M13 2.25H1C0.586 2.25 0.25 1.91475 0.25 1.5C0.25 1.08525 0.586 0.75 1 0.75H13C13.414 0.75 13.75 1.08525 13.75 1.5C13.75 1.91475 13.414 2.25 13 2.25ZM10 11.25H4C3.586 11.25 3.25 10.9148 3.25 10.5C3.25 10.0852 3.586 9.75 4 9.75H10C10.414 9.75 10.75 10.0852 10.75 10.5C10.75 10.9148 10.414 11.25 10 11.25ZM2.5 6.75H11.5C11.914 6.75 12.25 6.41475 12.25 6C12.25 5.58525 11.914 5.25 11.5 5.25H2.5C2.086 5.25 1.75 5.58525 1.75 6C1.75 6.41475 2.086 6.75 2.5 6.75Z" fill="currentColor"/>
  </symbol>

  <symbol id="button-download" viewBox="0 0 16 16" fill="none" xmlns="http://www.w3.org/2000/svg">
    <path d="M8 11.8623C7.58579 11.8623 7.25 11.5265 7.25 11.1123V3.46826L6.28697 4.45587C5.99779 4.75243 5.52295 4.75841 5.22639 4.46923C4.92983 4.18005 4.92385 3.70522 5.21303 3.40866L7.46265 1.10163C7.48972 1.07387 7.51872 1.04843 7.54934 1.02544C7.6748 0.930988 7.83086 0.875 8 0.875C8.21978 0.875 8.41748 0.969533 8.55465 1.12016L10.7869 3.40857C11.0761 3.70508 11.0702 4.17991 10.7737 4.46914C10.4772 4.75838 10.0024 4.75247 9.71312 4.45596L8.75 3.4686V11.1123C8.75 11.5265 8.41421 11.8623 8 11.8623Z" fill="currentColor"/>
    <path d="M4.23784 15.125C2.24468 15.125 0.5 13.644 0.5 11.6671V9.58368C0.5 7.6061 1.49454 6.125 3.48784 6.125H4.24432C4.65854 6.125 4.99432 6.46079 4.99432 6.875C4.99432 7.28922 4.65854 7.625 4.24432 7.625H3.48784C2.18113 7.625 2 8.56958 2 9.58368V11.6671C2 12.6803 2.931 13.625 4.23784 13.625H11.7622C13.069 13.625 14 12.6803 14 11.6671V9.57633C14 8.56639 13.8226 7.625 12.5211 7.625H11.7565C11.3423 7.625 11.0065 7.28922 11.0065 6.875C11.0065 6.46079 11.3423 6.125 11.7565 6.125H12.5211C14.5098 6.125 15.5 7.60341 15.5 9.57633V11.6671C15.5 13.644 13.7553 15.125 11.7622 15.125H4.23784Z" fill="currentColor"/>
  </symbol>

  <symbol  id="button-reset" viewBox="0 0 12 12" fill="none" xmlns="http://www.w3.org/2000/svg">
    <path fill-rule="evenodd" clip-rule="evenodd" d="M7.06068 6.00015L11.0304 2.03044C11.3237 1.73719 11.3237 1.26319 11.0304 0.969938C10.7372 0.676687 10.2632 0.676687 9.96993 0.969938L6.00018 4.93965L2.03044 0.969938C1.73719 0.676687 1.26319 0.676687 0.969938 0.969938C0.676687 1.26319 0.676687 1.73719 0.969938 2.03044L4.93968 6.00015L0.969938 9.96998C0.676687 10.2632 0.676687 10.7372 0.969938 11.0304C1.11619 11.1767 1.30819 11.2502 1.50019 11.2502C1.69219 11.2502 1.88419 11.1767 2.03044 11.0304L6.00018 7.06073L9.96993 11.0304C10.1162 11.1767 10.3082 11.2502 10.5002 11.2502C10.6922 11.2502 10.8842 11.1767 11.0304 11.0304C11.3237 10.7372 11.3237 10.2632 11.0304 9.96998L7.06068 6.00015Z" fill="currentColor"/>
  </symbol>

  <symbol id="button-apply" viewBox="0 0 13 10" fill="none" xmlns="http://www.w3.org/2000/svg">
    <path fill-rule="evenodd" clip-rule="evenodd" d="M4.53119 9.35953C4.33919 9.35953 4.14719 9.28603 4.00094 9.13978L0.719693 5.8586C0.426443 5.56535 0.426443 5.09128 0.719693 4.7981C1.01294 4.50485 1.48694 4.50485 1.78019 4.7981L4.53119 7.5491L11.2197 0.860563C11.5129 0.567312 11.9869 0.567312 12.2802 0.860563C12.5734 1.15381 12.5734 1.62781 12.2802 1.92106L5.06144 9.13978C4.91519 9.28603 4.72319 9.35953 4.53119 9.35953Z" fill="currentColor"/>
  </symbol>

  <symbol id="log-out" viewBox="0 0 16 16" xmlns="http://www.w3.org/2000/svg">
    <path fill-rule="evenodd" clip-rule="evenodd" d="M4.58153 0.5C2.32706 0.5 0.5 2.32818 0.5 4.58153V11.4171C0.5 13.6711 2.32694 15.4994 4.58153 15.4994H10.1547C10.6149 15.4994 10.988 15.1263 10.988 14.6661C10.988 14.2058 10.6149 13.8327 10.1547 13.8327H4.58153C3.24795 13.8327 2.16667 12.7512 2.16667 11.4171V4.58153C2.16667 3.24837 3.24782 2.16667 4.58153 2.16667H10.1547C10.6149 2.16667 10.988 1.79357 10.988 1.33333C10.988 0.873096 10.6149 0.5 10.1547 0.5H4.58153ZM12.0157 4.40104C11.6784 4.08788 11.1511 4.10743 10.838 4.44469C10.5248 4.78196 10.5443 5.30924 10.8816 5.6224L12.5448 7.16668L6.85085 7.16692C6.39061 7.16694 6.01753 7.54005 6.01755 8.00029C6.01757 8.46053 6.39069 8.83361 6.85092 8.83359L12.5446 8.83334L10.8816 10.3775C10.5443 10.6907 10.5248 11.2179 10.838 11.5552C11.1511 11.8925 11.6784 11.912 12.0157 11.5988L15.2339 8.61059C15.4037 8.45291 15.5002 8.23165 15.5002 7.99992C15.5002 7.76818 15.4037 7.54692 15.2339 7.38924L12.0157 4.40104Z" fill="currentColor"/>
  </symbol>

  <symbol id="chevron" viewBox="0 0 6 8" xmlns="http://www.w3.org/2000/svg">
    <path fill-rule="evenodd" clip-rule="evenodd" d="M0.891559 0.22456C0.647475 0.468635 0.647475 0.864368 0.891559 1.10844L3.78289 3.99984L0.891559 6.89125C0.647475 7.13534 0.647475 7.531 0.891559 7.77509C1.13564 8.01917 1.53131 8.01917 1.77539 7.77509L5.10875 4.44175C5.35282 4.19767 5.35282 3.802 5.10875 3.55792L1.77539 0.22456C1.53131 -0.0195148 1.13564 -0.0195148 0.891559 0.22456Z" fill="currentColor"/>
  </symbol>

  <symbol id="newUser" viewBox="0 0 16 16" fill="none" xmlns="http://www.w3.org/2000/svg">
    <path d="M6.125 10.2614C9.1751 10.2614 11.75 10.7633 11.75 12.7016C11.75 14.6399 9.15858 15.125 6.125 15.125C3.0749 15.125 0.5 14.6224 0.5 12.6848C0.5 10.7465 3.09067 10.2614 6.125 10.2614ZM13.2492 4.625C13.6214 4.625 13.9235 4.93208 13.9235 5.30871V6.1909H14.8258C15.1972 6.1909 15.5 6.49798 15.5 6.87461C15.5 7.25124 15.1972 7.55832 14.8258 7.55832H13.9235V8.44129C13.9235 8.81792 13.6214 9.125 13.2492 9.125C12.8778 9.125 12.575 8.81792 12.575 8.44129V7.55832H11.6742C11.3021 7.55832 11 7.25124 11 6.87461C11 6.49798 11.3021 6.1909 11.6742 6.1909H12.575V5.30871C12.575 4.93208 12.8778 4.625 13.2492 4.625ZM6.125 0.875C8.19093 0.875 9.84697 2.55247 9.84697 4.64513C9.84697 6.73779 8.19093 8.41526 6.125 8.41526C4.05907 8.41526 2.40303 6.73779 2.40303 4.64513C2.40303 2.55247 4.05907 0.875 6.125 0.875Z" fill="currentColor"/>
  </symbol>

  <symbol id="downloadResult" viewBox="0 0 16 16" fill="none" xmlns="http://www.w3.org/2000/svg">
    <path fill-rule="evenodd" clip-rule="evenodd" d="M7.40306 10.6471C7.3966 10.6408 7.39002 10.6344 7.38438 10.6275L4.40104 7.41667C4.08771 7.08 4.10687 6.5525 4.44437 6.23917C4.78104 5.925 5.30854 5.945 5.62187 6.2825L7.16688 7.945V1.33333C7.16688 0.8725 7.54021 0.5 8.00021 0.5C8.46105 0.5 8.83355 0.8725 8.83355 1.33333V7.945L10.3785 6.2825C10.6919 5.94583 11.2194 5.92583 11.556 6.23917C11.8935 6.5525 11.9127 7.08 11.5994 7.41667L8.61688 10.6275C8.60855 10.6367 8.59938 10.6458 8.59021 10.655C8.52188 10.7233 8.44438 10.7783 8.36105 10.8183H8.35938C8.34521 10.8258 8.33021 10.8325 8.31605 10.8375C8.22938 10.8733 8.13605 10.8942 8.03855 10.8992H8.03688C8.03115 10.8992 8.02521 10.8994 8.01918 10.8996C8.01293 10.8998 8.00657 10.9 8.00021 10.9H7.99521C7.98855 10.9 7.98105 10.9 7.97438 10.8992H7.97188C7.87438 10.8958 7.78271 10.8758 7.69688 10.8425C7.68107 10.8367 7.66609 10.83 7.65111 10.8234L7.65105 10.8233L7.64938 10.8225C7.56188 10.7817 7.48021 10.7258 7.40938 10.6533C7.40731 10.6513 7.40519 10.6492 7.40306 10.6471ZM13.8333 10.5326C13.8333 10.0726 14.2067 9.69925 14.6667 9.69925C15.1267 9.69925 15.5 10.0726 15.5 10.5326V11.9076C15.5 13.8876 13.8883 15.4993 11.9083 15.4993H4.0925C2.11167 15.4993 0.5 13.8876 0.5 11.9076V10.5326C0.5 10.0726 0.873333 9.69925 1.33333 9.69925C1.79417 9.69925 2.16667 10.0726 2.16667 10.5326V11.9076C2.16667 12.9693 3.03083 13.8326 4.0925 13.8326H11.9083C12.97 13.8326 13.8333 12.9693 13.8333 11.9076V10.5326Z" fill="currentColor"/>
  </symbol>

  <symbol id="client-icon" width="32" height="32" viewBox="0 0 32 32" fill="none" xmlns="http://www.w3.org/2000/svg">
    <path opacity="0.2" d="M21 18C21 18.9889 20.7068 19.9556 20.1574 20.7779C19.6079 21.6001 18.8271 22.241 17.9134 22.6194C16.9998 22.9978 15.9945 23.0969 15.0246 22.9039C14.0546 22.711 13.1637 22.2348 12.4645 21.5355C11.7652 20.8363 11.289 19.9454 11.0961 18.9755C10.9031 18.0055 11.0022 17.0002 11.3806 16.0866C11.759 15.173 12.3999 14.3921 13.2222 13.8427C14.0444 13.2932 15.0111 13 16 13C17.3261 13 18.5979 13.5268 19.5355 14.4645C20.4732 15.4021 21 16.6739 21 18ZM8 7C7.20888 7 6.43552 7.2346 5.77772 7.67412C5.11992 8.11365 4.60723 8.73836 4.30448 9.46927C4.00173 10.2002 3.92252 11.0044 4.07686 11.7804C4.2312 12.5563 4.61216 13.269 5.17157 13.8284C5.73098 14.3878 6.44372 14.7688 7.21964 14.9231C7.99556 15.0775 8.79983 14.9983 9.53074 14.6955C10.2616 14.3928 10.8864 13.8801 11.3259 13.2223C11.7654 12.5645 12 11.7911 12 11C12 9.93913 11.5786 8.92172 10.8284 8.17157C10.0783 7.42143 9.06087 7 8 7ZM24 7C23.2089 7 22.4355 7.2346 21.7777 7.67412C21.1199 8.11365 20.6072 8.73836 20.3045 9.46927C20.0017 10.2002 19.9225 11.0044 20.0769 11.7804C20.2312 12.5563 20.6122 13.269 21.1716 13.8284C21.731 14.3878 22.4437 14.7688 23.2196 14.9231C23.9956 15.0775 24.7998 14.9983 25.5307 14.6955C26.2616 14.3928 26.8864 13.8801 27.3259 13.2223C27.7654 12.5645 28 11.7911 28 11C28 9.93913 27.5786 8.92172 26.8284 8.17157C26.0783 7.42143 25.0609 7 24 7Z" fill="#5B616D"/>
    <path d="M30.6 18.7999C30.495 18.8787 30.3754 18.936 30.2482 18.9686C30.121 19.0012 29.9886 19.0084 29.8586 18.9898C29.7286 18.9713 29.6035 18.9273 29.4905 18.8604C29.3775 18.7935 29.2788 18.705 29.2 18.5999C28.5973 17.7897 27.8127 17.1324 26.9096 16.6808C26.0064 16.2292 25.0098 15.996 24 15.9999C23.7348 15.9999 23.4804 15.8945 23.2929 15.707C23.1054 15.5195 23 15.2651 23 14.9999C23 14.7347 23.1054 14.4803 23.2929 14.2928C23.4804 14.1053 23.7348 13.9999 24 13.9999C24.5611 13.9998 25.1109 13.8424 25.5871 13.5456C26.0632 13.2487 26.4465 12.8243 26.6935 12.3204C26.9405 11.8166 27.0412 11.2537 26.9843 10.6955C26.9273 10.1373 26.715 9.60624 26.3714 9.16268C26.0278 8.71911 25.5666 8.3808 25.0404 8.18617C24.5141 7.99154 23.9439 7.94839 23.3943 8.06163C22.8448 8.17486 22.338 8.43994 21.9315 8.82676C21.5251 9.21358 21.2353 9.70662 21.095 10.2499C21.0622 10.3771 21.0046 10.4966 20.9256 10.6016C20.8466 10.7066 20.7477 10.7949 20.6345 10.8617C20.5213 10.9284 20.3961 10.9722 20.266 10.9906C20.1359 11.0089 20.0035 11.0015 19.8763 10.9686C19.749 10.9358 19.6295 10.8783 19.5246 10.7992C19.4196 10.7202 19.3312 10.6213 19.2645 10.5081C19.1977 10.395 19.1539 10.2697 19.1356 10.1397C19.1172 10.0096 19.1247 9.87712 19.1575 9.7499C19.3522 8.99654 19.72 8.29902 20.2318 7.71284C20.7435 7.12665 21.3849 6.66799 22.1051 6.37334C22.8252 6.07868 23.6042 5.95618 24.3801 6.01556C25.1559 6.07495 25.9072 6.31459 26.5741 6.71541C27.241 7.11624 27.8052 7.66719 28.2217 8.32442C28.6383 8.98165 28.8957 9.72703 28.9734 10.5012C29.0512 11.2755 28.9472 12.0571 28.6697 12.7841C28.3922 13.511 27.9489 14.1632 27.375 14.6886C28.7348 15.2774 29.9168 16.2117 30.8038 17.3986C30.8826 17.504 30.9398 17.6238 30.9722 17.7513C31.0046 17.8788 31.0115 18.0114 30.9926 18.1415C30.9737 18.2717 30.9293 18.3969 30.8619 18.5098C30.7945 18.6228 30.7055 18.7214 30.6 18.7999ZM23.865 26.4999C23.9348 26.6137 23.9811 26.7404 24.0012 26.8724C24.0213 27.0044 24.0147 27.1391 23.9819 27.2686C23.949 27.398 23.8906 27.5196 23.81 27.6261C23.7295 27.7326 23.6284 27.8218 23.5127 27.8886C23.3971 27.9554 23.2693 27.9984 23.1368 28.015C23.0042 28.0315 22.8698 28.0214 22.7412 27.9852C22.6127 27.949 22.4927 27.8873 22.3884 27.804C22.2841 27.7206 22.1975 27.6173 22.1338 27.4999C21.5037 26.4335 20.6066 25.5498 19.5309 24.9359C18.4552 24.322 17.238 23.9991 15.9994 23.9991C14.7608 23.9991 13.5436 24.322 12.4679 24.9359C11.3922 25.5498 10.495 26.4335 9.86501 27.4999C9.8025 27.6194 9.71646 27.725 9.61206 27.8104C9.50767 27.8958 9.38708 27.9592 9.25755 27.9968C9.12802 28.0343 8.99223 28.0453 8.85835 28.0291C8.72446 28.0128 8.59525 27.9696 8.47848 27.9021C8.36172 27.8346 8.25981 27.7442 8.1789 27.6363C8.09798 27.5284 8.03973 27.4053 8.00764 27.2743C7.97556 27.1433 7.9703 27.0072 7.99219 26.8741C8.01408 26.741 8.06266 26.6137 8.13501 26.4999C9.10451 24.8341 10.5828 23.5232 12.3525 22.7599C11.3567 21.9974 10.6248 20.9421 10.2598 19.7422C9.89473 18.5423 9.91489 17.2581 10.3174 16.0703C10.7199 14.8824 11.4846 13.8506 12.5038 13.1197C13.5231 12.3889 14.7458 11.9959 16 11.9959C17.2542 11.9959 18.4769 12.3889 19.4962 13.1197C20.5155 13.8506 21.2801 14.8824 21.6826 16.0703C22.0851 17.2581 22.1053 18.5423 21.7403 19.7422C21.3752 20.9421 20.6434 21.9974 19.6475 22.7599C21.4173 23.5232 22.8955 24.8341 23.865 26.4999ZM16 21.9999C16.7911 21.9999 17.5645 21.7653 18.2223 21.3258C18.8801 20.8863 19.3928 20.2615 19.6955 19.5306C19.9983 18.7997 20.0775 17.9955 19.9232 17.2195C19.7688 16.4436 19.3878 15.7309 18.8284 15.1715C18.269 14.6121 17.5563 14.2311 16.7804 14.0768C16.0045 13.9224 15.2002 14.0016 14.4693 14.3044C13.7384 14.6071 13.1137 15.1198 12.6741 15.7776C12.2346 16.4354 12 17.2088 12 17.9999C12 19.0608 12.4214 20.0782 13.1716 20.8283C13.9217 21.5785 14.9391 21.9999 16 21.9999ZM9.00001 14.9999C9.00001 14.7347 8.89466 14.4803 8.70712 14.2928C8.51958 14.1053 8.26523 13.9999 8.00001 13.9999C7.43892 13.9998 6.88909 13.8424 6.41297 13.5456C5.93686 13.2487 5.55353 12.8243 5.30655 12.3204C5.05957 11.8166 4.95882 11.2537 5.01576 10.6955C5.0727 10.1373 5.28503 9.60624 5.62865 9.16268C5.97226 8.71911 6.43339 8.3808 6.95964 8.18617C7.48589 7.99154 8.05618 7.94839 8.60572 8.06163C9.15527 8.17486 9.66204 8.43994 10.0685 8.82676C10.4749 9.21358 10.7647 9.70662 10.905 10.2499C10.9713 10.5068 11.137 10.7269 11.3655 10.8617C11.5941 10.9965 11.8668 11.035 12.1238 10.9686C12.3807 10.9023 12.6008 10.7367 12.7355 10.5081C12.8703 10.2796 12.9088 10.0068 12.8425 9.7499C12.6478 8.99654 12.28 8.29902 11.7683 7.71284C11.2566 7.12665 10.6151 6.66799 9.89495 6.37334C9.17479 6.07868 8.3958 5.95618 7.61996 6.01556C6.84412 6.07495 6.09285 6.31459 5.42592 6.71541C4.75899 7.11624 4.19482 7.66719 3.77829 8.32442C3.36176 8.98165 3.10437 9.72703 3.0266 10.5012C2.94883 11.2755 3.05283 12.0571 3.33032 12.7841C3.60781 13.511 4.05113 14.1632 4.62501 14.6886C3.26662 15.278 2.08591 16.2122 1.20001 17.3986C1.04072 17.6108 0.972231 17.8776 1.00962 18.1403C1.04701 18.4029 1.18721 18.64 1.39939 18.7993C1.61156 18.9586 1.87832 19.0271 2.14099 18.9897C2.40366 18.9523 2.64072 18.8121 2.80001 18.5999C3.40275 17.7897 4.18728 17.1324 5.09046 16.6808C5.99364 16.2292 6.99023 15.996 8.00001 15.9999C8.26523 15.9999 8.51958 15.8945 8.70712 15.707C8.89466 15.5195 9.00001 15.2651 9.00001 14.9999Z" fill="#5B616D"/>
  </symbol>

  <symbol id="calendar-icon" width="32" height="32" viewBox="0 0 32 32" fill="none" xmlns="http://www.w3.org/2000/svg">
    <path opacity="0.2" d="M26 5V25C26 25.7956 25.6839 26.5587 25.1213 27.1213C24.5587 27.6839 23.7956 28 23 28H9C8.20435 28 7.44129 27.6839 6.87868 27.1213C6.31607 26.5587 6 25.7956 6 25V5H26Z" fill="#5B616D"/>
    <path d="M21 16C21 16.2652 20.8946 16.5196 20.7071 16.7071C20.5196 16.8946 20.2652 17 20 17H12C11.7348 17 11.4804 16.8946 11.2929 16.7071C11.1054 16.5196 11 16.2652 11 16C11 15.7348 11.1054 15.4804 11.2929 15.2929C11.4804 15.1054 11.7348 15 12 15H20C20.2652 15 20.5196 15.1054 20.7071 15.2929C20.8946 15.4804 21 15.7348 21 16ZM20 19H12C11.7348 19 11.4804 19.1054 11.2929 19.2929C11.1054 19.4804 11 19.7348 11 20C11 20.2652 11.1054 20.5196 11.2929 20.7071C11.4804 20.8946 11.7348 21 12 21H20C20.2652 21 20.5196 20.8946 20.7071 20.7071C20.8946 20.5196 21 20.2652 21 20C21 19.7348 20.8946 19.4804 20.7071 19.2929C20.5196 19.1054 20.2652 19 20 19ZM27 5V25C27 26.0609 26.5786 27.0783 25.8284 27.8284C25.0783 28.5786 24.0609 29 23 29H9C7.93913 29 6.92172 28.5786 6.17157 27.8284C5.42143 27.0783 5 26.0609 5 25V5C5 4.73478 5.10536 4.48043 5.29289 4.29289C5.48043 4.10536 5.73478 4 6 4H9V3C9 2.73478 9.10536 2.48043 9.29289 2.29289C9.48043 2.10536 9.73478 2 10 2C10.2652 2 10.5196 2.10536 10.7071 2.29289C10.8946 2.48043 11 2.73478 11 3V4H15V3C15 2.73478 15.1054 2.48043 15.2929 2.29289C15.4804 2.10536 15.7348 2 16 2C16.2652 2 16.5196 2.10536 16.7071 2.29289C16.8946 2.48043 17 2.73478 17 3V4H21V3C21 2.73478 21.1054 2.48043 21.2929 2.29289C21.4804 2.10536 21.7348 2 22 2C22.2652 2 22.5196 2.10536 22.7071 2.29289C22.8946 2.48043 23 2.73478 23 3V4H26C26.2652 4 26.5196 4.10536 26.7071 4.29289C26.8946 4.48043 27 4.73478 27 5ZM25 6H23V7C23 7.26522 22.8946 7.51957 22.7071 7.70711C22.5196 7.89464 22.2652 8 22 8C21.7348 8 21.4804 7.89464 21.2929 7.70711C21.1054 7.51957 21 7.26522 21 7V6H17V7C17 7.26522 16.8946 7.51957 16.7071 7.70711C16.5196 7.89464 16.2652 8 16 8C15.7348 8 15.4804 7.89464 15.2929 7.70711C15.1054 7.51957 15 7.26522 15 7V6H11V7C11 7.26522 10.8946 7.51957 10.7071 7.70711C10.5196 7.89464 10.2652 8 10 8C9.73478 8 9.48043 7.89464 9.29289 7.70711C9.10536 7.51957 9 7.26522 9 7V6H7V25C7 25.5304 7.21071 26.0391 7.58579 26.4142C7.96086 26.7893 8.46957 27 9 27H23C23.5304 27 24.0391 26.7893 24.4142 26.4142C24.7893 26.0391 25 25.5304 25 25V6Z" fill="#5B616D"/>
  </symbol>

  <symbol id="info-icon" width="14" height="14" viewBox="0 0 14 14" fill="none" xmlns="http://www.w3.org/2000/svg">
  <path fill-rule="evenodd" clip-rule="evenodd" d="M7 0.25C3.27826 0.25 0.25 3.27755 0.25 7C0.25 10.7217 3.27826 13.75 7 13.75C10.7217 13.75 13.75 10.7217 13.75 7C13.75 3.27755 10.7217 0.25 7 0.25ZM7.93749 4.5625C7.93749 5.08027 7.51776 5.5 6.99999 5.5C6.48222 5.5 6.06249 5.08027 6.06249 4.5625C6.06249 4.04473 6.48222 3.625 6.99999 3.625C7.51776 3.625 7.93749 4.04473 7.93749 4.5625ZM7.00001 6.24997C6.5858 6.24997 6.25001 6.58575 6.25001 6.99997V9.99997C6.25001 10.4142 6.5858 10.75 7.00001 10.75C7.41422 10.75 7.75001 10.4142 7.75001 9.99997V6.99997C7.75001 6.58575 7.41422 6.24997 7.00001 6.24997Z" fill="#5B616D"/>
  </symbol>

  <symbol id="upload-icon"  width="18" height="16" viewBox="0 0 18 16" fill="none" xmlns="http://www.w3.org/2000/svg">
    <path d="M9 12.2914C8.53976 12.2914 8.16667 11.9183 8.16667 11.4581V2.96466L7.09663 4.062C6.77532 4.39151 6.24773 4.39816 5.91822 4.07685C5.58871 3.75553 5.58206 3.22794 5.90337 2.89843L8.40294 0.335066C8.43302 0.304219 8.46524 0.275952 8.49927 0.25041C8.63867 0.145461 8.81207 0.083252 9 0.083252C9.2442 0.083252 9.46387 0.188289 9.61628 0.355647L12.0965 2.89832C12.4179 3.22778 12.4113 3.75538 12.0819 4.07675C11.7524 4.39811 11.2248 4.39156 10.9035 4.0621L9.83333 2.96503V11.4581C9.83333 11.9183 9.46024 12.2914 9 12.2914Z" fill="#5B616D"/>
    <path d="M4.81982 15.9166C2.6052 15.9166 0.666668 14.2711 0.666668 12.0744V9.75956C0.666668 7.56225 1.77171 5.91659 3.98649 5.91659H4.82703C5.28727 5.91659 5.66036 6.28969 5.66036 6.74992C5.66036 7.21016 5.28727 7.58326 4.82703 7.58326H3.98649C2.53459 7.58326 2.33333 8.63279 2.33333 9.75956V12.0744C2.33333 13.2003 3.36777 14.2499 4.81982 14.2499H13.1802C14.6322 14.2499 15.6667 13.2003 15.6667 12.0744V9.75139C15.6667 8.62924 15.4696 7.58326 14.0234 7.58326H13.1739C12.7136 7.58326 12.3405 7.21016 12.3405 6.74992C12.3405 6.28969 12.7136 5.91659 13.1739 5.91659H14.0234C16.2331 5.91659 17.3333 7.55927 17.3333 9.75139V12.0744C17.3333 14.2711 15.3948 15.9166 13.1802 15.9166H4.81982Z" fill="#5B616D"/>
  </symbol>

  <symbol id="option-icon" width="20" height="4" viewBox="0 0 20 4" fill="none" xmlns="http://www.w3.org/2000/svg">
    <path d="M2.68359 0.166992C3.69589 0.167253 4.5166 0.987639 4.5166 2C4.5166 3.01236 3.69589 3.83275 2.68359 3.83301H2.66699C1.65447 3.83301 0.833008 3.01252 0.833008 2C0.833008 0.987478 1.65447 0.166992 2.66699 0.166992H2.68359ZM10.0078 0.166992C11.0203 0.166992 11.8418 0.987478 11.8418 2C11.8418 3.01252 11.0203 3.83301 10.0078 3.83301H9.99219C8.97967 3.83301 8.1582 3.01252 8.1582 2C8.1582 0.987478 8.97967 0.166992 9.99219 0.166992H10.0078ZM17.333 0.166992C18.3455 0.166992 19.167 0.987478 19.167 2C19.167 3.01252 18.3455 3.83301 17.333 3.83301H17.3164C16.3041 3.83275 15.4834 3.01236 15.4834 2C15.4834 0.987638 16.3041 0.167251 17.3164 0.166992H17.333Z" fill="#5B616D"/>
  </symbol>   

  <symbol id='user-group-icon' width="32" height="32" viewBox="0 0 32 32" fill="none" xmlns="http://www.w3.org/2000/svg">
    <path opacity="0.2" d="M21 18C21 18.9889 20.7068 19.9556 20.1574 20.7779C19.6079 21.6001 18.8271 22.241 17.9134 22.6194C16.9998 22.9978 15.9945 23.0969 15.0246 22.9039C14.0546 22.711 13.1637 22.2348 12.4645 21.5355C11.7652 20.8363 11.289 19.9454 11.0961 18.9755C10.9031 18.0055 11.0022 17.0002 11.3806 16.0866C11.759 15.173 12.3999 14.3921 13.2222 13.8427C14.0444 13.2932 15.0111 13 16 13C17.3261 13 18.5979 13.5268 19.5355 14.4645C20.4732 15.4021 21 16.6739 21 18ZM8 7C7.20888 7 6.43552 7.2346 5.77772 7.67412C5.11992 8.11365 4.60723 8.73836 4.30448 9.46927C4.00173 10.2002 3.92252 11.0044 4.07686 11.7804C4.2312 12.5563 4.61216 13.269 5.17157 13.8284C5.73098 14.3878 6.44372 14.7688 7.21964 14.9231C7.99556 15.0775 8.79983 14.9983 9.53074 14.6955C10.2616 14.3928 10.8864 13.8801 11.3259 13.2223C11.7654 12.5645 12 11.7911 12 11C12 9.93913 11.5786 8.92172 10.8284 8.17157C10.0783 7.42143 9.06087 7 8 7ZM24 7C23.2089 7 22.4355 7.2346 21.7777 7.67412C21.1199 8.11365 20.6072 8.73836 20.3045 9.46927C20.0017 10.2002 19.9225 11.0044 20.0769 11.7804C20.2312 12.5563 20.6122 13.269 21.1716 13.8284C21.731 14.3878 22.4437 14.7688 23.2196 14.9231C23.9956 15.0775 24.7998 14.9983 25.5307 14.6955C26.2616 14.3928 26.8864 13.8801 27.3259 13.2223C27.7654 12.5645 28 11.7911 28 11C28 9.93913 27.5786 8.92172 26.8284 8.17157C26.0783 7.42143 25.0609 7 24 7Z" fill="currentColor"/>
    <path d="M30.6 18.8C30.495 18.8788 30.3754 18.9361 30.2482 18.9687C30.121 19.0013 29.9886 19.0085 29.8586 18.99C29.7286 18.9714 29.6035 18.9274 29.4905 18.8605C29.3775 18.7936 29.2788 18.7051 29.2 18.6C28.5973 17.7898 27.8127 17.1325 26.9096 16.6809C26.0064 16.2293 25.0098 15.9961 24 16C23.7348 16 23.4804 15.8947 23.2929 15.7071C23.1054 15.5196 23 15.2652 23 15C23 14.7348 23.1054 14.4804 23.2929 14.2929C23.4804 14.1054 23.7348 14 24 14C24.5611 14 25.1109 13.8426 25.5871 13.5457C26.0632 13.2488 26.4465 12.8244 26.6935 12.3206C26.9405 11.8168 27.0412 11.2538 26.9843 10.6956C26.9273 10.1374 26.715 9.60636 26.3714 9.1628C26.0278 8.71923 25.5666 8.38092 25.0404 8.18629C24.5141 7.99166 23.9439 7.94851 23.3943 8.06175C22.8448 8.17499 22.338 8.44007 21.9315 8.82688C21.5251 9.2137 21.2353 9.70675 21.095 10.25C21.0622 10.3772 21.0046 10.4967 20.9256 10.6017C20.8466 10.7067 20.7477 10.7951 20.6345 10.8618C20.5213 10.9285 20.3961 10.9723 20.266 10.9907C20.1359 11.0091 20.0035 11.0016 19.8763 10.9688C19.749 10.9359 19.6295 10.8784 19.5246 10.7994C19.4196 10.7203 19.3312 10.6214 19.2645 10.5083C19.1977 10.3951 19.1539 10.2699 19.1356 10.1398C19.1172 10.0097 19.1247 9.87724 19.1575 9.75002C19.3522 8.99666 19.72 8.29914 20.2318 7.71296C20.7435 7.12678 21.3849 6.66811 22.1051 6.37346C22.8252 6.0788 23.6042 5.9563 24.3801 6.01568C25.1559 6.07507 25.9072 6.31471 26.5741 6.71553C27.241 7.11636 27.8052 7.66731 28.2217 8.32454C28.6383 8.98178 28.8957 9.72715 28.9734 10.5014C29.0512 11.2756 28.9472 12.0573 28.6697 12.7842C28.3922 13.5112 27.9489 14.1633 27.375 14.6888C28.7348 15.2775 29.9168 16.2118 30.8038 17.3988C30.8826 17.5041 30.9398 17.6239 30.9722 17.7514C31.0046 17.8789 31.0115 18.0115 30.9926 18.1417C30.9737 18.2718 30.9293 18.397 30.8619 18.51C30.7945 18.6229 30.7055 18.7215 30.6 18.8ZM23.865 26.5C23.9348 26.6139 23.9811 26.7405 24.0012 26.8725C24.0213 27.0046 24.0147 27.1393 23.9819 27.2687C23.949 27.3981 23.8906 27.5197 23.81 27.6262C23.7295 27.7327 23.6284 27.822 23.5127 27.8887C23.3971 27.9555 23.2693 27.9985 23.1368 28.0151C23.0042 28.0317 22.8698 28.0215 22.7412 27.9853C22.6127 27.9491 22.4927 27.8875 22.3884 27.8041C22.2841 27.7208 22.1975 27.6174 22.1338 27.5C21.5037 26.4336 20.6066 25.5499 19.5309 24.936C18.4552 24.3221 17.238 23.9993 15.9994 23.9993C14.7608 23.9993 13.5436 24.3221 12.4679 24.936C11.3922 25.5499 10.495 26.4336 9.86501 27.5C9.8025 27.6195 9.71646 27.7251 9.61206 27.8105C9.50767 27.8959 9.38708 27.9593 9.25755 27.9969C9.12802 28.0345 8.99223 28.0455 8.85835 28.0292C8.72446 28.0129 8.59525 27.9698 8.47848 27.9023C8.36172 27.8348 8.25981 27.7444 8.1789 27.6365C8.09798 27.5286 8.03973 27.4054 8.00764 27.2744C7.97556 27.1434 7.9703 27.0073 7.99219 26.8742C8.01408 26.7411 8.06266 26.6138 8.13501 26.5C9.10451 24.8342 10.5828 23.5234 12.3525 22.76C11.3567 21.9976 10.6248 20.9422 10.2598 19.7423C9.89473 18.5424 9.91489 17.2583 10.3174 16.0704C10.7199 14.8825 11.4846 13.8507 12.5038 13.1199C13.5231 12.389 14.7458 11.996 16 11.996C17.2542 11.996 18.4769 12.389 19.4962 13.1199C20.5155 13.8507 21.2801 14.8825 21.6826 16.0704C22.0851 17.2583 22.1053 18.5424 21.7403 19.7423C21.3752 20.9422 20.6434 21.9976 19.6475 22.76C21.4173 23.5234 22.8955 24.8342 23.865 26.5ZM16 22C16.7911 22 17.5645 21.7654 18.2223 21.3259C18.8801 20.8864 19.3928 20.2617 19.6955 19.5308C19.9983 18.7998 20.0775 17.9956 19.9232 17.2197C19.7688 16.4437 19.3878 15.731 18.8284 15.1716C18.269 14.6122 17.5563 14.2312 16.7804 14.0769C16.0045 13.9225 15.2002 14.0018 14.4693 14.3045C13.7384 14.6073 13.1137 15.1199 12.6741 15.7777C12.2346 16.4355 12 17.2089 12 18C12 19.0609 12.4214 20.0783 13.1716 20.8284C13.9217 21.5786 14.9391 22 16 22ZM9.00001 15C9.00001 14.7348 8.89466 14.4804 8.70712 14.2929C8.51958 14.1054 8.26523 14 8.00001 14C7.43892 14 6.88909 13.8426 6.41297 13.5457C5.93686 13.2488 5.55353 12.8244 5.30655 12.3206C5.05957 11.8168 4.95882 11.2538 5.01576 10.6956C5.0727 10.1374 5.28503 9.60636 5.62865 9.1628C5.97226 8.71923 6.43339 8.38092 6.95964 8.18629C7.48589 7.99166 8.05618 7.94851 8.60572 8.06175C9.15527 8.17499 9.66204 8.44007 10.0685 8.82688C10.4749 9.2137 10.7647 9.70675 10.905 10.25C10.9713 10.5069 11.137 10.727 11.3655 10.8618C11.5941 10.9966 11.8668 11.0351 12.1238 10.9688C12.3807 10.9025 12.6008 10.7368 12.7355 10.5083C12.8703 10.2797 12.9088 10.0069 12.8425 9.75002C12.6478 8.99666 12.28 8.29914 11.7683 7.71296C11.2566 7.12678 10.6151 6.66811 9.89495 6.37346C9.17479 6.0788 8.3958 5.9563 7.61996 6.01568C6.84412 6.07507 6.09285 6.31471 5.42592 6.71553C4.75899 7.11636 4.19482 7.66731 3.77829 8.32454C3.36176 8.98178 3.10437 9.72715 3.0266 10.5014C2.94883 11.2756 3.05283 12.0573 3.33032 12.7842C3.60781 13.5112 4.05113 14.1633 4.62501 14.6888C3.26662 15.2781 2.08591 16.2123 1.20001 17.3988C1.04072 17.6109 0.972231 17.8777 1.00962 18.1404C1.04701 18.403 1.18721 18.6401 1.39939 18.7994C1.61156 18.9587 1.87832 19.0272 2.14099 18.9898C2.40366 18.9524 2.64072 18.8122 2.80001 18.6C3.40275 17.7898 4.18728 17.1325 5.09046 16.6809C5.99364 16.2293 6.99023 15.9961 8.00001 16C8.26523 16 8.51958 15.8947 8.70712 15.7071C8.89466 15.5196 9.00001 15.2652 9.00001 15Z" fill="currentColor"/>
  </symbol>



</svg>
